<svg xmlns="http://www.w3.org/2000/svg" viewBox="0 0 1200 800" role="img" aria-labelledby="title description">
  <title id="title">رسم توضيحي للتصور المقترح</title>
  <desc id="description">الشارع نفسه مع رصيف متصل وأشجار ومقاعد وتنظيم للمركبات</desc>
  <rect width="1200" height="800" fill="#ded7ca"/>
  <rect width="1200" height="310" fill="#eee9df"/>
  <path d="M0 310h1200v230H0z" fill="#c7bba8"/>
  <path d="M0 540h1200v260H0z" fill="#727473"/>
  <path d="M0 540h1200v122H0z" fill="#d4c6af"/>
  <path d="M0 662h1200" stroke="#f1ede5" stroke-width="5" stroke-dasharray="58 54"/>
  <g fill="#a7957c" stroke="#756955" stroke-width="4">
    <path d="M40 165h240v375H40z"/>
    <path d="M310 95h300v445H310z"/>
    <path d="M650 190h210v350H650z"/>
    <path d="M885 125h275v415H885z"/>
  </g>
  <g fill="#675e51">
    <rect x="86" y="235" width="58" height="76"/>
    <rect x="174" y="235" width="58" height="76"/>
    <rect x="370" y="170" width="70" height="86"/>
    <rect x="476" y="170" width="70" height="86"/>
    <rect x="703" y="260" width="74" height="92"/>
    <rect x="952" y="202" width="62" height="82"/>
    <rect x="1050" y="202" width="62" height="82"/>
  </g>
  <path d="M0 540h1200v18H0z" fill="#4e6954"/>
  <g stroke="#59644f" stroke-width="12">
    <path d="M155 535v-108"/>
    <path d="M497 535v-124"/>
    <path d="M875 535v-115"/>
  </g>
  <g fill="#60765c">
    <circle cx="155" cy="394" r="66"/>
    <circle cx="497" cy="376" r="78"/>
    <circle cx="875" cy="388" r="70"/>
  </g>
  <g fill="#856f55">
    <path d="M255 527h118v15H255z"/>
    <path d="M273 542h10v32h-10z"/>
    <path d="M345 542h10v32h-10z"/>
    <path d="M676 527h118v15H676z"/>
    <path d="M694 542h10v32h-10z"/>
    <path d="M766 542h10v32h-10z"/>
  </g>
  <path d="M0 603h1200" stroke="#8f806c" stroke-width="3"/>
  <path d="M80 587h960" stroke="#4e6954" stroke-width="6" stroke-dasharray="54 22"/>
</svg>
